<svg width="57" height="26" viewBox="0 0 57 26" fill="none" xmlns="http://www.w3.org/2000/svg">
<path d="M15.8846 22C24.0741 13.7461 37.5106 5.90778 56 2C40.0751 2.13662 26.2343 5.60324 15 10.843C15.1575 14.6019 15.4523 18.3209 15.8846 22Z" fill="#247AA9"/>
<path d="M15.3927 22.9992C15.3331 23.0035 15.2736 22.99 15.2203 22.96C15.1603 22.9262 15.1085 22.8768 15.0692 22.816C15.0298 22.7551 15.004 22.6846 14.994 22.6103C14.5253 18.7212 14.194 14.7838 14.0001 10.7982C13.9985 10.7192 14.0189 10.6417 14.0584 10.5763C14.098 10.5109 14.1548 10.461 14.221 10.4334C25.8274 4.85597 40.1086 1.15074 56.5311 1C56.8004 1 56.9917 1.15677 56.9997 1.37384C57.0078 1.59091 56.8193 1.7929 56.5634 1.84717C37.6467 5.95639 23.915 14.2291 15.557 22.9208C15.5117 22.9671 15.4538 22.9948 15.3927 22.9992ZM14.8216 11.0394C14.9527 14.6572 15.1996 18.2499 15.5623 21.8174C23.4409 13.8462 35.7639 6.28802 52.4261 1.96475C37.9483 2.60992 25.2887 6.04683 14.8216 11.0394Z" fill="#001C85"/>
<path d="M15.0932 11C10.4666 9.83516 5.74648 9.16404 1 8.99619C17.3351 1.97717 36.2121 -0.76743 56 2.15598C40.1034 2.2837 26.2947 5.75206 15.0932 11Z" fill="#2A5D9D"/>
<path d="M14.8506 10.9929C14.7996 11.0024 14.7474 11.0024 14.6964 10.9929C10.0051 9.80524 5.21852 9.12049 0.40502 8.94848C0.318495 8.95306 0.232888 8.9274 0.160663 8.87524C0.0884381 8.82308 0.0333646 8.74715 0.00345804 8.65849C-0.00835761 8.56949 0.0103392 8.47886 0.0559706 8.40396C0.101602 8.32905 0.170963 8.27512 0.250778 8.2525C17.0047 1.02005 36.3488 -1.81319 56.629 1.17664C56.8816 1.21434 57.0412 1.40574 56.9907 1.62034C56.9466 1.73747 56.8702 1.83673 56.772 1.9043C56.6738 1.97186 56.5588 2.00438 56.4428 1.99733C40.3219 2.11623 26.3284 5.63385 14.9809 10.9581C14.9394 10.9769 14.8954 10.9886 14.8506 10.9929ZM2.08573 8.2844C6.34832 8.52992 10.5835 9.1761 14.7442 10.2158C24.9295 5.45406 37.1785 2.12782 51.1481 1.33904C33.5778 -0.418323 16.8504 2.20902 2.09371 8.2989L2.08573 8.2844Z" fill="#001C85"/>
<path d="M19.5786 16.1199C18.2601 17.9858 17.0642 19.9507 16 22C18.0669 20.6279 20.2017 19.3807 22.3946 18.264C29.2109 12.3159 38.7651 6.80113 51 3C37.9557 5.74747 27.4333 10.5796 19.5786 16.1199Z" fill="#0081C6"/>
<path d="M16.3832 23C16.3207 23.0002 16.2591 22.9827 16.2038 22.9492C16.1486 22.9157 16.1013 22.8672 16.0662 22.8078C16.031 22.7485 16.0091 22.6802 16.0023 22.6088C15.9955 22.5375 16.004 22.4653 16.0271 22.3986C17.0946 20.2144 18.295 18.1194 19.6193 16.1292C19.6418 16.095 19.6693 16.0655 19.7005 16.042C27.6441 10.1274 38.2766 4.97054 51.4488 2.02377C51.5536 1.98573 51.667 1.99356 51.767 2.04574C51.8671 2.09793 51.9468 2.19078 51.9908 2.30642C52.0406 2.52292 51.8835 2.75445 51.6373 2.83263C39.3684 6.84686 29.7832 12.6773 22.9549 18.9497C22.9355 18.9675 22.9145 18.9826 22.892 18.9948C20.7009 20.1748 18.5682 21.4928 16.5036 22.9429C16.4683 22.9733 16.4269 22.9929 16.3832 23ZM20.1613 16.6855C19.1267 18.2286 18.1653 19.8346 17.2812 21.4965C18.9272 20.394 20.684 19.3346 22.5517 18.3182C27.9216 13.3809 34.9568 8.72618 43.644 4.98858C34.2079 7.93235 26.3586 12.0669 20.1613 16.6704V16.6855Z" fill="#001C85"/>
<path d="M20 16.084C23.493 18.5172 26.628 21.5239 29.2965 25C34.8805 16.7825 43.7774 8.67852 56 2C40.8101 4.50444 28.7345 9.8484 20 16.084Z" fill="#2A5D9D"/>
<path d="M28.9118 26C28.8482 25.9884 28.7905 25.9513 28.7495 25.8956C26.0011 22.2517 22.7717 19.1012 19.1733 16.5536C19.1231 16.5183 19.0813 16.4702 19.0512 16.4131C19.0211 16.3559 19.0037 16.2916 19.0004 16.2253C18.9977 16.1613 19.01 16.0975 19.0362 16.0404C19.0623 15.9834 19.1013 15.935 19.1493 15.9001C28.2095 9.31207 40.7225 3.66688 56.4515 1.01435C56.5521 0.988172 56.6575 0.997975 56.7529 1.04239C56.8483 1.0868 56.929 1.16359 56.9835 1.262C57.0121 1.36568 57.0033 1.47779 56.959 1.5743C56.9148 1.6708 56.8386 1.744 56.7467 1.77818C44.1247 8.76008 34.9342 17.2488 29.1512 25.8657C29.1278 25.9035 29.0973 25.935 29.062 25.9582C29.0266 25.9814 28.9871 25.9957 28.9464 26H28.9118ZM20.0138 16.2373C23.3499 18.672 26.3602 21.6266 28.9543 25.0124C34.3889 16.9564 42.7867 8.98983 54.1957 2.26752C39.9351 4.97673 28.4782 10.1893 20.0138 16.2373Z" fill="#001C85"/>
</svg>
