<svg width="140" height="87" viewBox="0 0 140 87" fill="none" xmlns="http://www.w3.org/2000/svg">
<path d="M48.5487 62.4802V60.9016C52.2772 60.4532 52.7381 59.8912 51.9324 57.7443C51.188 55.5531 50.0407 52.7431 48.8355 49.2037H36.4478C35.5293 51.7296 34.6689 53.9397 33.8697 56.2287C32.6064 59.8818 33.412 60.3333 38.1138 60.8921V62.4708H24.8592V60.8921C28.4718 60.4438 29.3902 60.0491 31.3979 54.9911L43.27 25.4859L45.1166 25.1639C48.7291 34.7747 52.6897 45.396 56.3023 55.1174C58.1392 60.0081 58.6548 60.4564 62.7249 60.9047V62.4834L48.5487 62.4802ZM42.8124 32.5204C40.9755 37.3543 39.0258 42.466 37.305 46.9083H48.0298L42.8124 32.5204Z" fill="#001C85"/>
<path d="M77.4845 58.3284C74.2361 62.3066 70.6816 63.1464 69.0574 63.1464C62.8635 63.1464 59.106 58.1737 59.106 52.4526C59.106 49.0711 60.3241 45.9359 62.4059 43.7479C64.5393 41.4114 67.3301 40.1169 69.9694 40.1169C74.3876 40.1169 77.7359 43.8489 77.7359 47.8271C77.6843 48.8217 77.5328 49.27 76.7207 49.4689C75.7056 49.6678 69.2056 50.1004 63.1664 50.3151C63.015 56.9802 67.1786 59.7176 70.7815 59.7176C72.8633 59.7176 74.7936 58.8714 76.6692 57.1917L77.4845 58.3284ZM68.7512 42.0145C66.4148 42.0145 64.13 44.152 63.421 48.1807C66.2634 48.1807 69.1057 48.1807 72.1027 48.0323C73.018 48.0323 73.3209 47.7829 73.3209 47.0378C73.3725 44.4014 71.5936 42.0145 68.7512 42.0145Z" fill="#001C85"/>
<path d="M88.7862 62.556H77.1107V61.1637C80.3075 60.8637 80.6137 60.6174 80.6137 57.3749V47.0441C80.6137 43.7605 80.4107 43.6121 77.4652 43.2553V42.0113C79.9329 41.6459 82.3398 40.96 84.6226 39.9717V45.4433C86.3983 42.8575 88.5316 40.1201 91.0678 40.1201C92.9466 40.1201 94.0133 41.263 94.0133 42.507C93.984 43.0685 93.8103 43.6136 93.5083 44.0916C93.2063 44.5697 92.7858 44.9652 92.286 45.2413C92.0909 45.3849 91.8491 45.4539 91.6059 45.4353C91.3626 45.4167 91.1347 45.3118 90.9647 45.1402C90.2042 44.3951 89.5951 43.8962 88.6799 43.8962C87.6132 43.8962 85.7344 45.437 84.6194 47.9755V57.3275C84.6194 60.6111 84.874 60.8605 88.783 61.1573L88.7862 62.556Z" fill="#0081C6"/>
<path d="M97.9997 39.8549C98.7064 39.8335 99.3783 39.5489 99.8783 39.059C100.378 38.5692 100.669 37.9109 100.691 37.2185C100.697 36.8617 100.631 36.5072 100.496 36.1757C100.361 35.8443 100.16 35.5424 99.9046 35.2879C99.6493 35.0334 99.3448 34.8312 99.0089 34.6932C98.673 34.5552 98.3124 34.4842 97.9481 34.4843C96.527 34.4843 95.37 35.6272 95.37 37.2185C95.3715 37.907 95.6471 38.5677 96.1382 39.0601C96.6294 39.5524 97.2972 39.8376 97.9997 39.8549Z" fill="#0081C6"/>
<path d="M102.479 62.556V61.1636C99.2791 60.8637 98.9342 60.6174 98.9342 57.2328V46.9873C98.9342 43.9026 99.0857 43.7036 102.134 43.1985V42.005C99.6625 41.6101 97.2442 40.9429 94.9253 40.0159V57.2264C94.9253 60.6079 94.5708 60.8574 91.2709 61.1573V62.5497L102.479 62.556Z" fill="#0081C6"/>
<path d="M115.415 46.64C114.499 43.7542 113.078 41.7651 109.981 41.7651C109.547 41.7525 109.114 41.8279 108.711 41.9865C108.308 42.1452 107.942 42.3838 107.637 42.6873C107.332 42.9907 107.095 43.3526 106.939 43.7503C106.783 44.1479 106.713 44.5727 106.733 44.9982C106.733 47.1862 108.409 48.2313 111.151 49.4184C115.315 51.2086 117.7 52.7999 117.7 56.2319C117.7 60.8069 113.436 63.1465 109.424 63.1465C107.321 63.1446 105.249 62.6499 103.381 61.7036C103.127 60.2607 102.669 57.4254 102.466 55.7836L103.939 55.5341C104.854 58.7167 106.63 61.4541 110.184 61.4541C112.118 61.4541 113.839 60.1596 113.839 58.0726C113.839 55.8341 112.469 54.6406 109.675 53.4472C106.378 51.9632 103.124 50.3214 103.124 46.5389C103.124 42.908 106.372 40.1232 111.145 40.1232C113.278 40.1232 115.105 40.6221 116.12 40.7547C116.272 41.9482 116.63 45.0834 116.881 46.2769L115.415 46.64Z" fill="#0081C6"/>
<path d="M64.8846 36C73.0741 27.7461 86.5106 19.9078 105 16C89.0751 16.1366 75.2343 19.6032 64 24.843C64.1575 28.6019 64.4523 32.3209 64.8846 36Z" fill="#247AA9"/>
<path d="M64.3927 36.9992C64.3331 37.0035 64.2736 36.99 64.2203 36.96C64.1603 36.9262 64.1085 36.8768 64.0692 36.816C64.0298 36.7551 64.004 36.6846 63.994 36.6103C63.5253 32.7212 63.194 28.7838 63.0001 24.7982C62.9985 24.7192 63.0189 24.6417 63.0584 24.5763C63.098 24.5109 63.1548 24.461 63.221 24.4334C74.8274 18.856 89.1086 15.1507 105.531 15C105.8 15 105.992 15.1568 106 15.3738C106.008 15.5909 105.819 15.7929 105.563 15.8472C86.6467 19.9564 72.915 28.2291 64.557 36.9208C64.5117 36.9671 64.4538 36.9948 64.3927 36.9992ZM63.8216 25.0394C63.9527 28.6572 64.1996 32.2499 64.5623 35.8174C72.4409 27.8462 84.7639 20.288 101.426 15.9647C86.9483 16.6099 74.2887 20.0468 63.8216 25.0394Z" fill="#001C85"/>
<path d="M64.0932 25C59.4666 23.8352 54.7465 23.164 50 22.9962C66.3351 15.9772 85.2121 13.2326 105 16.156C89.1034 16.2837 75.2947 19.7521 64.0932 25Z" fill="#2A5D9D"/>
<path d="M63.8506 24.9929C63.7996 25.0024 63.7474 25.0024 63.6964 24.9929C59.0051 23.8052 54.2185 23.1205 49.405 22.9485C49.3185 22.9531 49.2329 22.9274 49.1607 22.8752C49.0884 22.8231 49.0334 22.7471 49.0035 22.6585C48.9916 22.5695 49.0103 22.4789 49.056 22.404C49.1016 22.329 49.171 22.2751 49.2508 22.2525C66.0047 15.02 85.3488 12.1868 105.629 15.1766C105.882 15.2143 106.041 15.4057 105.991 15.6203C105.947 15.7375 105.87 15.8367 105.772 15.9043C105.674 15.9719 105.559 16.0044 105.443 15.9973C89.3219 16.1162 75.3284 19.6339 63.9809 24.9581C63.9394 24.9769 63.8954 24.9886 63.8506 24.9929ZM51.0857 22.2844C55.3483 22.5299 59.5835 23.1761 63.7442 24.2158C73.9295 19.4541 86.1785 16.1278 100.148 15.339C82.5778 13.5817 65.8504 16.209 51.0937 22.2989L51.0857 22.2844Z" fill="#001C85"/>
<path d="M68.5786 30.1199C67.2601 31.9858 66.0642 33.9507 65 36C67.0669 34.6279 69.2017 33.3807 71.3946 32.264C78.2109 26.3159 87.7651 20.8011 100 17C86.9557 19.7475 76.4333 24.5796 68.5786 30.1199Z" fill="#0081C6"/>
<path d="M65.3832 37C65.3207 37.0002 65.2591 36.9827 65.2038 36.9492C65.1486 36.9157 65.1013 36.8672 65.0662 36.8078C65.031 36.7485 65.0091 36.6802 65.0023 36.6088C64.9955 36.5375 65.004 36.4653 65.0271 36.3986C66.0946 34.2144 67.295 32.1194 68.6193 30.1292C68.6418 30.095 68.6693 30.0655 68.7005 30.042C76.6441 24.1274 87.2766 18.9705 100.449 16.0238C100.554 15.9857 100.667 15.9936 100.767 16.0457C100.867 16.0979 100.947 16.1908 100.991 16.3064C101.041 16.5229 100.883 16.7544 100.637 16.8326C88.3684 20.8469 78.7832 26.6773 71.9549 32.9497C71.9355 32.9675 71.9145 32.9826 71.892 32.9948C69.7009 34.1748 67.5682 35.4928 65.5036 36.9429C65.4683 36.9733 65.4269 36.9929 65.3832 37ZM69.1613 30.6855C68.1267 32.2286 67.1653 33.8346 66.2812 35.4965C67.9272 34.394 69.684 33.3346 71.5517 32.3182C76.9216 27.3809 83.9568 22.7262 92.644 18.9886C83.2079 21.9324 75.3586 26.0669 69.1613 30.6704V30.6855Z" fill="#001C85"/>
<path d="M69 30.084C72.493 32.5172 75.628 35.5239 78.2965 39C83.8805 30.7825 92.7774 22.6785 105 16C89.8101 18.5044 77.7345 23.8484 69 30.084Z" fill="#2A5D9D"/>
<path d="M77.9118 40C77.8482 39.9884 77.7905 39.9513 77.7495 39.8956C75.0011 36.2517 71.7717 33.1012 68.1733 30.5536C68.1231 30.5183 68.0813 30.4702 68.0512 30.4131C68.0211 30.3559 68.0037 30.2916 68.0004 30.2253C67.9977 30.1613 68.01 30.0975 68.0362 30.0404C68.0623 29.9834 68.1013 29.935 68.1493 29.9001C77.2095 23.3121 89.7225 17.6669 105.451 15.0144C105.552 14.9882 105.658 14.998 105.753 15.0424C105.848 15.0868 105.929 15.1636 105.983 15.262C106.012 15.3657 106.003 15.4778 105.959 15.5743C105.915 15.6708 105.839 15.744 105.747 15.7782C93.1247 22.7601 83.9342 31.2488 78.1512 39.8657C78.1278 39.9035 78.0973 39.935 78.062 39.9582C78.0266 39.9814 77.9871 39.9957 77.9464 40H77.9118ZM69.0138 30.2373C72.3499 32.672 75.3602 35.6266 77.9543 39.0124C83.3889 30.9564 91.7867 22.9898 103.196 16.2675C88.9351 18.9767 77.4782 24.1893 69.0138 30.2373Z" fill="#001C85"/>
</svg>
